<svg width="134" height="40" viewBox="0 0 134 40" fill="none" xmlns="http://www.w3.org/2000/svg">
<path d="M0 23.9785V1.33042H4.84211V23.9785H0Z" fill="white"/>
<path d="M9.63781 23.9785V8.80243H13.9539V11.1848C14.7481 10.1947 15.5989 9.46764 16.5065 9.00354C17.4244 8.52913 18.4402 8.29192 19.5541 8.29192C20.7298 8.29192 21.7147 8.49303 22.5089 8.89525C23.3133 9.28716 23.9476 9.89049 24.4117 10.7052C24.6386 11.1281 24.7984 11.6077 24.8912 12.144C24.9944 12.6699 25.0459 13.5002 25.0459 14.6346V23.9785H20.637V16.4756C20.637 14.6088 20.4204 13.3764 19.9872 12.7782C19.5541 12.18 18.8115 11.881 17.7596 11.881C17.1511 11.881 16.589 12.0099 16.0733 12.2677C15.568 12.5152 15.1451 12.871 14.8048 13.3351C14.5366 13.6961 14.3407 14.1086 14.2169 14.5727C14.1035 15.0368 14.0468 15.7433 14.0468 16.6921V23.9785H9.63781Z" fill="white"/>
<path d="M40.4076 16.3673C40.4076 15.0059 40.0622 13.9282 39.3712 13.134C38.6905 12.3399 37.7674 11.9428 36.602 11.9428C35.4057 11.9428 34.462 12.3347 33.771 13.1186C33.0903 13.8921 32.75 14.9646 32.75 16.3363C32.75 17.708 33.0852 18.7806 33.7555 19.5541C34.4362 20.3276 35.3747 20.7143 36.5711 20.7143C37.7881 20.7143 38.7317 20.3327 39.4021 19.5696C40.0725 18.8064 40.4076 17.7389 40.4076 16.3673ZM44.4299 23.9785H40.1601L40.222 21.7972C39.6238 22.7564 38.9019 23.4628 38.0562 23.9166C37.2208 24.3601 36.1998 24.5818 34.9931 24.5818C32.982 24.5818 31.3577 23.8341 30.1201 22.3387C28.8928 20.8433 28.2792 18.8682 28.2792 16.4137C28.2792 13.8457 28.8825 11.8449 30.0892 10.4113C31.3061 8.97776 32.9924 8.26098 35.1479 8.26098C36.2514 8.26098 37.2208 8.51366 38.0562 9.01901C38.8916 9.52436 39.6754 10.3236 40.4076 11.4169C40.3561 11.0456 40.3148 10.6382 40.2839 10.1947C40.2633 9.74094 40.2529 9.22528 40.2529 8.64773V0H44.4299V23.9785Z" fill="white"/>
<path d="M59.9308 16.3673C59.9308 15.0059 59.5853 13.9282 58.8943 13.134C58.2136 12.3399 57.2906 11.9428 56.1252 11.9428C54.9288 11.9428 53.9852 12.3399 53.2942 13.134C52.6135 13.9178 52.2731 14.9956 52.2731 16.3673C52.2731 17.7389 52.6083 18.8064 53.2787 19.5696C53.9594 20.3327 54.8979 20.7143 56.0942 20.7143C57.3112 20.7143 58.2549 20.3327 58.9252 19.5696C59.5956 18.8064 59.9308 17.7389 59.9308 16.3673ZM63.953 23.9785H59.6833L59.7452 21.7972C59.147 22.7564 58.425 23.4628 57.5794 23.9166C56.744 24.3601 55.723 24.5818 54.5163 24.5818C52.5052 24.5818 50.8808 23.8341 49.6432 22.3387C48.416 20.8433 47.8023 18.8682 47.8023 16.4137C47.8023 13.856 48.4056 11.8655 49.6123 10.4423C50.8293 9.0087 52.5155 8.29192 54.671 8.29192C55.7951 8.29192 56.7801 8.5446 57.6258 9.04995C58.4818 9.55531 59.1985 10.3082 59.7761 11.3086V8.80243H63.953V23.9785Z" fill="white"/>
<path d="M72.1366 16.3673C72.1366 17.7389 72.4718 18.8064 73.1422 19.5696C73.8229 20.3327 74.7665 20.7143 75.9732 20.7143C77.1798 20.7143 78.1184 20.3327 78.7887 19.5696C79.4694 18.8064 79.8097 17.7389 79.8097 16.3673C79.8097 14.9956 79.4643 13.9178 78.7733 13.134C78.0926 12.3399 77.1489 11.9428 75.9422 11.9428C74.7768 11.9428 73.8486 12.3399 73.1576 13.134C72.477 13.9282 72.1366 15.0059 72.1366 16.3673ZM68.1144 23.9785V0H72.3377V8.64773C72.3377 9.12214 72.3171 9.59656 72.2758 10.071C72.2449 10.5351 72.1985 10.9889 72.1366 11.4323C72.8586 10.3391 73.6424 9.54499 74.4881 9.04995C75.3338 8.5446 76.3032 8.29192 77.3964 8.29192C79.5622 8.29192 81.2485 9.0087 82.4551 10.4423C83.6721 11.8655 84.2806 13.856 84.2806 16.4137C84.2806 18.8786 83.6669 20.8587 82.4396 22.3542C81.2124 23.8393 79.5983 24.5818 77.5975 24.5818C76.3909 24.5818 75.3647 24.3601 74.519 23.9166C73.6836 23.4628 72.9669 22.7564 72.3687 21.7972L72.3996 23.9785H68.1144Z" fill="white"/>
<path d="M98.8224 16.3673C98.8224 15.0059 98.4769 13.9282 97.7859 13.134C97.1052 12.3399 96.1822 11.9428 95.0168 11.9428C93.8204 11.9428 92.8767 12.3399 92.1858 13.134C91.5051 13.9178 91.1647 14.9956 91.1647 16.3673C91.1647 17.7389 91.4999 18.8064 92.1703 19.5696C92.851 20.3327 93.7895 20.7143 94.9858 20.7143C96.2028 20.7143 97.1465 20.3327 97.8168 19.5696C98.4872 18.8064 98.8224 17.7389 98.8224 16.3673ZM102.845 23.9785H98.5749L98.6367 21.7972C98.0386 22.7564 97.3166 23.4628 96.4709 23.9166C95.6356 24.3601 94.6145 24.5818 93.4079 24.5818C91.3968 24.5818 89.7724 23.8341 88.5348 22.3387C87.3075 20.8433 86.6939 18.8682 86.6939 16.4137C86.6939 13.856 87.2972 11.8655 88.5039 10.4423C89.7209 9.0087 91.4071 8.29192 93.5626 8.29192C94.6867 8.29192 95.6717 8.5446 96.5174 9.04995C97.3734 9.55531 98.0901 10.3082 98.6677 11.3086V8.80243H102.845V23.9785Z" fill="white"/>
<path d="M118.946 8.56203C119.235 8.91765 119.501 9.29083 119.744 9.6794C119.939 10.0105 120.111 10.3546 120.259 10.7092C120.439 10.3385 120.645 9.9729 120.867 9.61246C121.119 9.21556 121.394 8.83386 121.691 8.46935L126.067 2.66114H133.06L123.853 13.4743L133.353 25.3173H126.232L121.665 19.0405C121.387 18.6604 121.135 18.2612 120.913 17.8459C120.685 17.4127 120.48 16.9675 120.3 16.5123C120.058 17.0272 119.821 17.5421 119.585 17.9489C119.348 18.3557 119.111 18.7367 118.889 19.0508L114.317 25.2812H107.258L116.778 13.4383L107.51 2.62509H114.544L118.946 8.56203Z" fill="url(#paint0_linear_126_12681)"/>
<path d="M103.458 37.8966H102.558L105.16 30.8114H106.046L108.647 37.8966H107.748L105.63 31.9323H105.575L103.458 37.8966ZM103.79 35.1289H107.416V35.89H103.79V35.1289Z" fill="white"/>
<path d="M110.457 30.8114V37.8966H109.64V30.8114H110.457Z" fill="white"/>
<path d="M114.097 40C113.702 40 113.363 39.9493 113.08 39.8478C112.796 39.7486 112.56 39.6171 112.371 39.4534C112.184 39.2919 112.035 39.119 111.924 38.9344L112.575 38.4778C112.648 38.5747 112.742 38.6854 112.855 38.8099C112.968 38.9368 113.122 39.0463 113.318 39.1386C113.517 39.2331 113.776 39.2804 114.097 39.2804C114.526 39.2804 114.88 39.1766 115.159 38.969C115.438 38.7615 115.578 38.4363 115.578 37.9934V36.9141H115.508C115.448 37.0109 115.363 37.1309 115.252 37.2739C115.144 37.4145 114.987 37.5402 114.782 37.6509C114.579 37.7593 114.304 37.8135 113.958 37.8135C113.53 37.8135 113.144 37.7121 112.803 37.5091C112.464 37.3061 112.195 37.0109 111.997 36.6235C111.801 36.236 111.703 35.7655 111.703 35.2119C111.703 34.6676 111.799 34.1937 111.99 33.7901C112.181 33.3841 112.448 33.0705 112.789 32.8491C113.131 32.6253 113.525 32.5135 113.972 32.5135C114.318 32.5135 114.593 32.5711 114.796 32.6865C115.001 32.7995 115.158 32.9286 115.266 33.0739C115.377 33.2169 115.462 33.3346 115.522 33.4268H115.605V32.5827H116.394V38.0488C116.394 38.5055 116.29 38.8768 116.083 39.1628C115.877 39.4511 115.601 39.6621 115.252 39.7959C114.906 39.932 114.521 40 114.097 40ZM114.069 37.0801C114.397 37.0801 114.673 37.0052 114.899 36.8552C115.126 36.7053 115.297 36.4897 115.415 36.2083C115.533 35.9269 115.591 35.5902 115.591 35.1981C115.591 34.8153 115.534 34.4774 115.418 34.1845C115.303 33.8915 115.132 33.6621 114.906 33.496C114.68 33.3299 114.401 33.2469 114.069 33.2469C113.723 33.2469 113.435 33.3346 113.204 33.5098C112.976 33.6851 112.804 33.9204 112.689 34.2156C112.576 34.5108 112.519 34.8383 112.519 35.1981C112.519 35.5671 112.577 35.8935 112.692 36.1772C112.81 36.4585 112.983 36.68 113.211 36.8414C113.442 37.0005 113.728 37.0801 114.069 37.0801Z" fill="white"/>
<path d="M120.117 38.0073C119.605 38.0073 119.163 37.8943 118.792 37.6682C118.422 37.4399 118.138 37.1216 117.937 36.7134C117.739 36.3029 117.639 35.8254 117.639 35.2811C117.639 34.7368 117.739 34.2571 117.937 33.842C118.138 33.4245 118.417 33.0993 118.774 32.8664C119.134 32.6311 119.554 32.5135 120.033 32.5135C120.31 32.5135 120.584 32.5596 120.853 32.6519C121.123 32.7441 121.369 32.894 121.59 33.1016C121.812 33.3069 121.988 33.579 122.12 33.9181C122.251 34.2571 122.317 34.6746 122.317 35.1704V35.5164H118.221V34.8106H121.487C121.487 34.5108 121.427 34.2433 121.307 34.008C121.189 33.7728 121.021 33.5871 120.802 33.451C120.585 33.315 120.329 33.2469 120.033 33.2469C119.708 33.2469 119.427 33.3276 119.189 33.4891C118.954 33.6482 118.773 33.8558 118.646 34.1118C118.519 34.3678 118.456 34.6423 118.456 34.9352V35.4057C118.456 35.807 118.525 36.1472 118.664 36.4263C118.804 36.703 118.999 36.9141 119.248 37.0594C119.497 37.2024 119.787 37.2739 120.117 37.2739C120.331 37.2739 120.525 37.2439 120.698 37.1839C120.873 37.1216 121.024 37.0294 121.151 36.9071C121.278 36.7826 121.376 36.6281 121.445 36.4436L122.234 36.665C122.151 36.9325 122.011 37.1678 121.815 37.3707C121.619 37.5714 121.377 37.7282 121.089 37.8412C120.8 37.9519 120.476 38.0073 120.117 38.0073Z" fill="white"/>
<path d="M123.559 37.8966V32.5827H124.348V33.3853H124.403C124.5 33.1224 124.675 32.909 124.929 32.7453C125.182 32.5815 125.468 32.4996 125.787 32.4996C125.847 32.4996 125.922 32.5008 126.012 32.5031C126.102 32.5054 126.17 32.5089 126.216 32.5135V33.3438C126.188 33.3369 126.125 33.3265 126.025 33.3126C125.929 33.2965 125.826 33.2884 125.718 33.2884C125.459 33.2884 125.229 33.3426 125.026 33.451C124.825 33.5571 124.666 33.7047 124.548 33.8939C124.433 34.0807 124.375 34.294 124.375 34.5339V37.8966H123.559Z" fill="white"/>
<path d="M127.184 37.8966V32.5827H128V37.8966H127.184ZM127.599 31.697C127.44 31.697 127.302 31.6428 127.187 31.5344C127.074 31.426 127.017 31.2957 127.017 31.1435C127.017 30.9913 127.074 30.861 127.187 30.7526C127.302 30.6442 127.44 30.59 127.599 30.59C127.758 30.59 127.894 30.6442 128.007 30.7526C128.122 30.861 128.18 30.9913 128.18 31.1435C128.18 31.2957 128.122 31.426 128.007 31.5344C127.894 31.6428 127.758 31.697 127.599 31.697Z" fill="white"/>
<path d="M131.059 38.0211C130.722 38.0211 130.417 37.9577 130.142 37.8308C129.868 37.7017 129.65 37.516 129.488 37.2739C129.327 37.0294 129.246 36.7342 129.246 36.3882C129.246 36.0838 129.306 35.837 129.426 35.6479C129.546 35.4564 129.706 35.3065 129.907 35.1981C130.108 35.0897 130.329 35.009 130.571 34.9559C130.816 34.9006 131.061 34.8568 131.308 34.8245C131.631 34.783 131.893 34.7518 132.094 34.7311C132.297 34.708 132.444 34.67 132.536 34.6169C132.631 34.5639 132.678 34.4716 132.678 34.3401V34.3125C132.678 33.9711 132.585 33.7059 132.398 33.5168C132.213 33.3276 131.933 33.2331 131.557 33.2331C131.168 33.2331 130.862 33.3184 130.641 33.4891C130.419 33.6598 130.263 33.842 130.173 34.0357L129.399 33.7589C129.537 33.436 129.721 33.1846 129.952 33.0047C130.185 32.8225 130.439 32.6957 130.713 32.6242C130.99 32.5504 131.262 32.5135 131.53 32.5135C131.7 32.5135 131.896 32.5342 132.118 32.5758C132.341 32.615 132.557 32.6968 132.765 32.8214C132.975 32.9459 133.149 33.1339 133.287 33.3853C133.425 33.6367 133.495 33.9734 133.495 34.3955V37.8966H132.678V37.177H132.637C132.581 37.2923 132.489 37.4157 132.36 37.5472C132.231 37.6786 132.059 37.7905 131.844 37.8827C131.63 37.975 131.368 38.0211 131.059 38.0211ZM131.184 37.2877C131.507 37.2877 131.779 37.2243 132 37.0974C132.224 36.9706 132.392 36.8068 132.505 36.6062C132.621 36.4055 132.678 36.1945 132.678 35.9731V35.2258C132.644 35.2673 132.568 35.3054 132.45 35.34C132.335 35.3722 132.201 35.4011 132.049 35.4264C131.899 35.4495 131.752 35.4703 131.609 35.4887C131.469 35.5049 131.354 35.5187 131.267 35.5302C131.055 35.5579 130.856 35.6029 130.672 35.6652C130.489 35.7251 130.342 35.8162 130.229 35.9385C130.118 36.0584 130.063 36.2221 130.063 36.4297C130.063 36.7134 130.168 36.9279 130.378 37.0732C130.59 37.2162 130.858 37.2877 131.184 37.2877Z" fill="white"/>
<defs>
<linearGradient id="paint0_linear_126_12681" x1="107.258" y1="13.9583" x2="133.353" y2="13.9583" gradientUnits="userSpaceOnUse">
<stop stop-color="#46605B"/>
<stop offset="1" stop-color="#DBE3FE"/>
</linearGradient>
</defs>
</svg>
